<mxfile host="" modified="2021-01-07T20:51:58.452Z" agent="5.0 (X11; Linux x86_64) AppleWebKit/537.36 (KHTML, like Gecko) Chrome/84.0.4147.105 Safari/537.36" etag="4b95gxx6-v0MDjgiWqL6" version="13.7.9" type="embed"><diagram id="R2lEEEUBdFMjLlhIrx00" name="Page-1"><mxGraphModel dx="1032" dy="421" grid="1" gridSize="10" guides="1" tooltips="1" connect="1" arrows="1" fold="1" page="1" pageScale="1" pageWidth="3300" pageHeight="4681" math="0" shadow="0" extFonts="Permanent Marker^https://fonts.googleapis.com/css?family=Permanent+Marker"><root><mxCell id="0"/><mxCell id="1" parent="0"/><mxCell id="fO9nQ9TDPX31HJ8RTjg1-5" value="issLocationButton&lt;br&gt;action listener" style="shape=umlFrame;whiteSpace=wrap;html=1;fillColor=#d0cee2;width=110;height=50;strokeColor=#56517e;" parent="1" vertex="1"><mxGeometry x="1200" y="230" width="1090" height="250" as="geometry"/></mxCell><mxCell id="C-vyLk0tnHw3VtMMgP7b-1" value="" style="edgeStyle=entityRelationEdgeStyle;endArrow=ERzeroToMany;startArrow=ERone;endFill=1;startFill=0;" parent="1" source="C-vyLk0tnHw3VtMMgP7b-24" target="C-vyLk0tnHw3VtMMgP7b-6" edge="1"><mxGeometry width="100" height="100" relative="1" as="geometry"><mxPoint x="340" y="720" as="sourcePoint"/><mxPoint x="440" y="620" as="targetPoint"/></mxGeometry></mxCell><mxCell id="C-vyLk0tnHw3VtMMgP7b-12" value="" style="edgeStyle=entityRelationEdgeStyle;endArrow=ERzeroToMany;startArrow=ERone;endFill=1;startFill=0;" parent="1" source="C-vyLk0tnHw3VtMMgP7b-3" target="C-vyLk0tnHw3VtMMgP7b-17" edge="1"><mxGeometry width="100" height="100" relative="1" as="geometry"><mxPoint x="400" y="180" as="sourcePoint"/><mxPoint x="460" y="205" as="targetPoint"/></mxGeometry></mxCell><mxCell id="C-vyLk0tnHw3VtMMgP7b-2" value="Orders" style="shape=table;startSize=30;container=1;collapsible=1;childLayout=tableLayout;fixedRows=1;rowLines=0;fontStyle=1;align=center;resizeLast=1;" parent="1" vertex="1"><mxGeometry x="450" y="120" width="250" height="130" as="geometry"/></mxCell><mxCell id="C-vyLk0tnHw3VtMMgP7b-3" value="" style="shape=partialRectangle;collapsible=0;dropTarget=0;pointerEvents=0;fillColor=none;points=[[0,0.5],[1,0.5]];portConstraint=eastwest;top=0;left=0;right=0;bottom=1;" parent="C-vyLk0tnHw3VtMMgP7b-2" vertex="1"><mxGeometry y="30" width="250" height="30" as="geometry"/></mxCell><mxCell id="C-vyLk0tnHw3VtMMgP7b-4" value="PK" style="shape=partialRectangle;overflow=hidden;connectable=0;fillColor=none;top=0;left=0;bottom=0;right=0;fontStyle=1;" parent="C-vyLk0tnHw3VtMMgP7b-3" vertex="1"><mxGeometry width="30" height="30" as="geometry"/></mxCell><mxCell id="C-vyLk0tnHw3VtMMgP7b-5" value="order_id int NOT NULL " style="shape=partialRectangle;overflow=hidden;connectable=0;fillColor=none;top=0;left=0;bottom=0;right=0;align=left;spacingLeft=6;fontStyle=5;" parent="C-vyLk0tnHw3VtMMgP7b-3" vertex="1"><mxGeometry x="30" width="220" height="30" as="geometry"/></mxCell><mxCell id="C-vyLk0tnHw3VtMMgP7b-6" value="" style="shape=partialRectangle;collapsible=0;dropTarget=0;pointerEvents=0;fillColor=none;points=[[0,0.5],[1,0.5]];portConstraint=eastwest;top=0;left=0;right=0;bottom=0;" parent="C-vyLk0tnHw3VtMMgP7b-2" vertex="1"><mxGeometry y="60" width="250" height="30" as="geometry"/></mxCell><mxCell id="C-vyLk0tnHw3VtMMgP7b-7" value="FK1" style="shape=partialRectangle;overflow=hidden;connectable=0;fillColor=none;top=0;left=0;bottom=0;right=0;" parent="C-vyLk0tnHw3VtMMgP7b-6" vertex="1"><mxGeometry width="30" height="30" as="geometry"/></mxCell><mxCell id="C-vyLk0tnHw3VtMMgP7b-8" value="customer_id int NOT NULL" style="shape=partialRectangle;overflow=hidden;connectable=0;fillColor=none;top=0;left=0;bottom=0;right=0;align=left;spacingLeft=6;" parent="C-vyLk0tnHw3VtMMgP7b-6" vertex="1"><mxGeometry x="30" width="220" height="30" as="geometry"/></mxCell><mxCell id="C-vyLk0tnHw3VtMMgP7b-9" value="" style="shape=partialRectangle;collapsible=0;dropTarget=0;pointerEvents=0;fillColor=none;points=[[0,0.5],[1,0.5]];portConstraint=eastwest;top=0;left=0;right=0;bottom=0;" parent="C-vyLk0tnHw3VtMMgP7b-2" vertex="1"><mxGeometry y="90" width="250" height="30" as="geometry"/></mxCell><mxCell id="C-vyLk0tnHw3VtMMgP7b-10" value="" style="shape=partialRectangle;overflow=hidden;connectable=0;fillColor=none;top=0;left=0;bottom=0;right=0;" parent="C-vyLk0tnHw3VtMMgP7b-9" vertex="1"><mxGeometry width="30" height="30" as="geometry"/></mxCell><mxCell id="C-vyLk0tnHw3VtMMgP7b-11" value="order_date date NOT NULL" style="shape=partialRectangle;overflow=hidden;connectable=0;fillColor=none;top=0;left=0;bottom=0;right=0;align=left;spacingLeft=6;" parent="C-vyLk0tnHw3VtMMgP7b-9" vertex="1"><mxGeometry x="30" width="220" height="30" as="geometry"/></mxCell><mxCell id="C-vyLk0tnHw3VtMMgP7b-13" value="Shipments" style="shape=table;startSize=30;container=1;collapsible=1;childLayout=tableLayout;fixedRows=1;rowLines=0;fontStyle=1;align=center;resizeLast=1;" parent="1" vertex="1"><mxGeometry x="450" y="280" width="250" height="130" as="geometry"/></mxCell><mxCell id="C-vyLk0tnHw3VtMMgP7b-14" value="" style="shape=partialRectangle;collapsible=0;dropTarget=0;pointerEvents=0;fillColor=none;points=[[0,0.5],[1,0.5]];portConstraint=eastwest;top=0;left=0;right=0;bottom=1;" parent="C-vyLk0tnHw3VtMMgP7b-13" vertex="1"><mxGeometry y="30" width="250" height="30" as="geometry"/></mxCell><mxCell id="C-vyLk0tnHw3VtMMgP7b-15" value="PK" style="shape=partialRectangle;overflow=hidden;connectable=0;fillColor=none;top=0;left=0;bottom=0;right=0;fontStyle=1;" parent="C-vyLk0tnHw3VtMMgP7b-14" vertex="1"><mxGeometry width="30" height="30" as="geometry"/></mxCell><mxCell id="C-vyLk0tnHw3VtMMgP7b-16" value="shipment_id int NOT NULL " style="shape=partialRectangle;overflow=hidden;connectable=0;fillColor=none;top=0;left=0;bottom=0;right=0;align=left;spacingLeft=6;fontStyle=5;" parent="C-vyLk0tnHw3VtMMgP7b-14" vertex="1"><mxGeometry x="30" width="220" height="30" as="geometry"/></mxCell><mxCell id="C-vyLk0tnHw3VtMMgP7b-17" value="" style="shape=partialRectangle;collapsible=0;dropTarget=0;pointerEvents=0;fillColor=none;points=[[0,0.5],[1,0.5]];portConstraint=eastwest;top=0;left=0;right=0;bottom=0;" parent="C-vyLk0tnHw3VtMMgP7b-13" vertex="1"><mxGeometry y="60" width="250" height="30" as="geometry"/></mxCell><mxCell id="C-vyLk0tnHw3VtMMgP7b-18" value="FK1" style="shape=partialRectangle;overflow=hidden;connectable=0;fillColor=none;top=0;left=0;bottom=0;right=0;" parent="C-vyLk0tnHw3VtMMgP7b-17" vertex="1"><mxGeometry width="30" height="30" as="geometry"/></mxCell><mxCell id="C-vyLk0tnHw3VtMMgP7b-19" value="order_id int NOT NULL" style="shape=partialRectangle;overflow=hidden;connectable=0;fillColor=none;top=0;left=0;bottom=0;right=0;align=left;spacingLeft=6;" parent="C-vyLk0tnHw3VtMMgP7b-17" vertex="1"><mxGeometry x="30" width="220" height="30" as="geometry"/></mxCell><mxCell id="C-vyLk0tnHw3VtMMgP7b-20" value="" style="shape=partialRectangle;collapsible=0;dropTarget=0;pointerEvents=0;fillColor=none;points=[[0,0.5],[1,0.5]];portConstraint=eastwest;top=0;left=0;right=0;bottom=0;" parent="C-vyLk0tnHw3VtMMgP7b-13" vertex="1"><mxGeometry y="90" width="250" height="30" as="geometry"/></mxCell><mxCell id="C-vyLk0tnHw3VtMMgP7b-21" value="" style="shape=partialRectangle;overflow=hidden;connectable=0;fillColor=none;top=0;left=0;bottom=0;right=0;" parent="C-vyLk0tnHw3VtMMgP7b-20" vertex="1"><mxGeometry width="30" height="30" as="geometry"/></mxCell><mxCell id="C-vyLk0tnHw3VtMMgP7b-22" value="shipment_date date NOT NULL" style="shape=partialRectangle;overflow=hidden;connectable=0;fillColor=none;top=0;left=0;bottom=0;right=0;align=left;spacingLeft=6;" parent="C-vyLk0tnHw3VtMMgP7b-20" vertex="1"><mxGeometry x="30" width="220" height="30" as="geometry"/></mxCell><mxCell id="C-vyLk0tnHw3VtMMgP7b-23" value="Customers" style="shape=table;startSize=30;container=1;collapsible=1;childLayout=tableLayout;fixedRows=1;rowLines=0;fontStyle=1;align=center;resizeLast=1;" parent="1" vertex="1"><mxGeometry x="120" y="120" width="250" height="100" as="geometry"><mxRectangle x="120" y="120" width="100" height="30" as="alternateBounds"/></mxGeometry></mxCell><mxCell id="C-vyLk0tnHw3VtMMgP7b-24" value="" style="shape=partialRectangle;collapsible=0;dropTarget=0;pointerEvents=0;fillColor=none;points=[[0,0.5],[1,0.5]];portConstraint=eastwest;top=0;left=0;right=0;bottom=1;" parent="C-vyLk0tnHw3VtMMgP7b-23" vertex="1"><mxGeometry y="30" width="250" height="30" as="geometry"/></mxCell><mxCell id="C-vyLk0tnHw3VtMMgP7b-25" value="PK" style="shape=partialRectangle;overflow=hidden;connectable=0;fillColor=none;top=0;left=0;bottom=0;right=0;fontStyle=1;" parent="C-vyLk0tnHw3VtMMgP7b-24" vertex="1"><mxGeometry width="30" height="30" as="geometry"/></mxCell><mxCell id="C-vyLk0tnHw3VtMMgP7b-26" value="customer_id int NOT NULL " style="shape=partialRectangle;overflow=hidden;connectable=0;fillColor=none;top=0;left=0;bottom=0;right=0;align=left;spacingLeft=6;fontStyle=5;" parent="C-vyLk0tnHw3VtMMgP7b-24" vertex="1"><mxGeometry x="30" width="220" height="30" as="geometry"/></mxCell><mxCell id="C-vyLk0tnHw3VtMMgP7b-27" value="" style="shape=partialRectangle;collapsible=0;dropTarget=0;pointerEvents=0;fillColor=none;points=[[0,0.5],[1,0.5]];portConstraint=eastwest;top=0;left=0;right=0;bottom=0;" parent="C-vyLk0tnHw3VtMMgP7b-23" vertex="1"><mxGeometry y="60" width="250" height="30" as="geometry"/></mxCell><mxCell id="C-vyLk0tnHw3VtMMgP7b-28" value="" style="shape=partialRectangle;overflow=hidden;connectable=0;fillColor=none;top=0;left=0;bottom=0;right=0;" parent="C-vyLk0tnHw3VtMMgP7b-27" vertex="1"><mxGeometry width="30" height="30" as="geometry"/></mxCell><mxCell id="C-vyLk0tnHw3VtMMgP7b-29" value="customer_name char(50) NOT NULL" style="shape=partialRectangle;overflow=hidden;connectable=0;fillColor=none;top=0;left=0;bottom=0;right=0;align=left;spacingLeft=6;" parent="C-vyLk0tnHw3VtMMgP7b-27" vertex="1"><mxGeometry x="30" width="220" height="30" as="geometry"/></mxCell><mxCell id="3KtKmSdysrP-4wJzGKe_-5" value="Position" style="shape=table;startSize=30;container=1;collapsible=1;childLayout=tableLayout;fixedRows=1;rowLines=0;fontStyle=1;align=center;resizeLast=1;fillColor=#dae8fc;strokeColor=#6c8ebf;" parent="1" vertex="1"><mxGeometry x="40" y="1120" width="180" height="160" as="geometry"/></mxCell><mxCell id="3KtKmSdysrP-4wJzGKe_-6" value="" style="shape=partialRectangle;collapsible=0;dropTarget=0;pointerEvents=0;fillColor=none;top=0;left=0;bottom=1;right=0;points=[[0,0.5],[1,0.5]];portConstraint=eastwest;" parent="3KtKmSdysrP-4wJzGKe_-5" vertex="1"><mxGeometry y="30" width="180" height="30" as="geometry"/></mxCell><mxCell id="3KtKmSdysrP-4wJzGKe_-7" value="PK" style="shape=partialRectangle;connectable=0;fillColor=none;top=0;left=0;bottom=0;right=0;fontStyle=1;overflow=hidden;" parent="3KtKmSdysrP-4wJzGKe_-6" vertex="1"><mxGeometry width="30" height="30" as="geometry"/></mxCell><mxCell id="3KtKmSdysrP-4wJzGKe_-8" value="timestamp" style="shape=partialRectangle;connectable=0;fillColor=none;top=0;left=0;bottom=0;right=0;align=left;spacingLeft=6;fontStyle=5;overflow=hidden;" parent="3KtKmSdysrP-4wJzGKe_-6" vertex="1"><mxGeometry x="30" width="150" height="30" as="geometry"/></mxCell><mxCell id="3KtKmSdysrP-4wJzGKe_-9" value="" style="shape=partialRectangle;collapsible=0;dropTarget=0;pointerEvents=0;fillColor=none;top=0;left=0;bottom=0;right=0;points=[[0,0.5],[1,0.5]];portConstraint=eastwest;" parent="3KtKmSdysrP-4wJzGKe_-5" vertex="1"><mxGeometry y="60" width="180" height="30" as="geometry"/></mxCell><mxCell id="3KtKmSdysrP-4wJzGKe_-10" value="" style="shape=partialRectangle;connectable=0;fillColor=none;top=0;left=0;bottom=0;right=0;editable=1;overflow=hidden;" parent="3KtKmSdysrP-4wJzGKe_-9" vertex="1"><mxGeometry width="30" height="30" as="geometry"/></mxCell><mxCell id="3KtKmSdysrP-4wJzGKe_-11" value="longitude" style="shape=partialRectangle;connectable=0;fillColor=none;top=0;left=0;bottom=0;right=0;align=left;spacingLeft=6;overflow=hidden;" parent="3KtKmSdysrP-4wJzGKe_-9" vertex="1"><mxGeometry x="30" width="150" height="30" as="geometry"/></mxCell><mxCell id="3KtKmSdysrP-4wJzGKe_-12" value="" style="shape=partialRectangle;collapsible=0;dropTarget=0;pointerEvents=0;fillColor=none;top=0;left=0;bottom=0;right=0;points=[[0,0.5],[1,0.5]];portConstraint=eastwest;" parent="3KtKmSdysrP-4wJzGKe_-5" vertex="1"><mxGeometry y="90" width="180" height="30" as="geometry"/></mxCell><mxCell id="3KtKmSdysrP-4wJzGKe_-13" value="" style="shape=partialRectangle;connectable=0;fillColor=none;top=0;left=0;bottom=0;right=0;editable=1;overflow=hidden;" parent="3KtKmSdysrP-4wJzGKe_-12" vertex="1"><mxGeometry width="30" height="30" as="geometry"/></mxCell><mxCell id="3KtKmSdysrP-4wJzGKe_-14" value="latitude" style="shape=partialRectangle;connectable=0;fillColor=none;top=0;left=0;bottom=0;right=0;align=left;spacingLeft=6;overflow=hidden;" parent="3KtKmSdysrP-4wJzGKe_-12" vertex="1"><mxGeometry x="30" width="150" height="30" as="geometry"/></mxCell><mxCell id="3KtKmSdysrP-4wJzGKe_-15" value="" style="shape=partialRectangle;collapsible=0;dropTarget=0;pointerEvents=0;fillColor=none;top=0;left=0;bottom=0;right=0;points=[[0,0.5],[1,0.5]];portConstraint=eastwest;" parent="3KtKmSdysrP-4wJzGKe_-5" vertex="1"><mxGeometry y="120" width="180" height="30" as="geometry"/></mxCell><mxCell id="3KtKmSdysrP-4wJzGKe_-16" value="" style="shape=partialRectangle;connectable=0;fillColor=none;top=0;left=0;bottom=0;right=0;editable=1;overflow=hidden;" parent="3KtKmSdysrP-4wJzGKe_-15" vertex="1"><mxGeometry width="30" height="30" as="geometry"/></mxCell><mxCell id="3KtKmSdysrP-4wJzGKe_-17" value="" style="shape=partialRectangle;connectable=0;fillColor=none;top=0;left=0;bottom=0;right=0;align=left;spacingLeft=6;overflow=hidden;" parent="3KtKmSdysrP-4wJzGKe_-15" vertex="1"><mxGeometry x="30" width="150" height="30" as="geometry"/></mxCell><mxCell id="3KtKmSdysrP-4wJzGKe_-18" value="PositionResponse" style="swimlane;childLayout=stackLayout;horizontal=1;startSize=30;horizontalStack=0;rounded=1;fontSize=14;fontStyle=0;strokeWidth=2;resizeParent=0;resizeLast=1;shadow=0;dashed=0;align=center;fillColor=#dae8fc;strokeColor=#6c8ebf;" parent="1" vertex="1"><mxGeometry x="520" y="1120" width="160" height="120" as="geometry"/></mxCell><mxCell id="3KtKmSdysrP-4wJzGKe_-19" value="+message&#10;+timestamp&#10;+Coordinates" style="align=left;strokeColor=none;fillColor=none;spacingLeft=4;fontSize=12;verticalAlign=top;resizable=0;rotatable=0;part=1;" parent="3KtKmSdysrP-4wJzGKe_-18" vertex="1"><mxGeometry y="30" width="160" height="90" as="geometry"/></mxCell><mxCell id="3KtKmSdysrP-4wJzGKe_-20" value="Astronauts" style="shape=table;startSize=30;container=1;collapsible=1;childLayout=tableLayout;fixedRows=1;rowLines=0;fontStyle=1;align=center;resizeLast=1;fillColor=#d5e8d4;strokeColor=#82b366;" parent="1" vertex="1"><mxGeometry x="40" y="1360" width="180" height="160" as="geometry"/></mxCell><mxCell id="3KtKmSdysrP-4wJzGKe_-21" value="" style="shape=partialRectangle;collapsible=0;dropTarget=0;pointerEvents=0;fillColor=none;top=0;left=0;bottom=1;right=0;points=[[0,0.5],[1,0.5]];portConstraint=eastwest;" parent="3KtKmSdysrP-4wJzGKe_-20" vertex="1"><mxGeometry y="30" width="180" height="30" as="geometry"/></mxCell><mxCell id="3KtKmSdysrP-4wJzGKe_-22" value="PK" style="shape=partialRectangle;connectable=0;fillColor=none;top=0;left=0;bottom=0;right=0;fontStyle=1;overflow=hidden;" parent="3KtKmSdysrP-4wJzGKe_-21" vertex="1"><mxGeometry width="30" height="30" as="geometry"/></mxCell><mxCell id="3KtKmSdysrP-4wJzGKe_-23" value="date" style="shape=partialRectangle;connectable=0;fillColor=none;top=0;left=0;bottom=0;right=0;align=left;spacingLeft=6;fontStyle=5;overflow=hidden;" parent="3KtKmSdysrP-4wJzGKe_-21" vertex="1"><mxGeometry x="30" width="150" height="30" as="geometry"/></mxCell><mxCell id="3KtKmSdysrP-4wJzGKe_-24" value="" style="shape=partialRectangle;collapsible=0;dropTarget=0;pointerEvents=0;fillColor=none;top=0;left=0;bottom=0;right=0;points=[[0,0.5],[1,0.5]];portConstraint=eastwest;" parent="3KtKmSdysrP-4wJzGKe_-20" vertex="1"><mxGeometry y="60" width="180" height="30" as="geometry"/></mxCell><mxCell id="3KtKmSdysrP-4wJzGKe_-25" value="" style="shape=partialRectangle;connectable=0;fillColor=none;top=0;left=0;bottom=0;right=0;editable=1;overflow=hidden;" parent="3KtKmSdysrP-4wJzGKe_-24" vertex="1"><mxGeometry width="30" height="30" as="geometry"/></mxCell><mxCell id="3KtKmSdysrP-4wJzGKe_-26" value="numberOfPeople" style="shape=partialRectangle;connectable=0;fillColor=none;top=0;left=0;bottom=0;right=0;align=left;spacingLeft=6;overflow=hidden;" parent="3KtKmSdysrP-4wJzGKe_-24" vertex="1"><mxGeometry x="30" width="150" height="30" as="geometry"/></mxCell><mxCell id="3KtKmSdysrP-4wJzGKe_-27" value="" style="shape=partialRectangle;collapsible=0;dropTarget=0;pointerEvents=0;fillColor=none;top=0;left=0;bottom=0;right=0;points=[[0,0.5],[1,0.5]];portConstraint=eastwest;" parent="3KtKmSdysrP-4wJzGKe_-20" vertex="1"><mxGeometry y="90" width="180" height="30" as="geometry"/></mxCell><mxCell id="3KtKmSdysrP-4wJzGKe_-28" value="" style="shape=partialRectangle;connectable=0;fillColor=none;top=0;left=0;bottom=0;right=0;editable=1;overflow=hidden;" parent="3KtKmSdysrP-4wJzGKe_-27" vertex="1"><mxGeometry width="30" height="30" as="geometry"/></mxCell><mxCell id="3KtKmSdysrP-4wJzGKe_-29" value="" style="shape=partialRectangle;connectable=0;fillColor=none;top=0;left=0;bottom=0;right=0;align=left;spacingLeft=6;overflow=hidden;" parent="3KtKmSdysrP-4wJzGKe_-27" vertex="1"><mxGeometry x="30" width="150" height="30" as="geometry"/></mxCell><mxCell id="3KtKmSdysrP-4wJzGKe_-30" value="" style="shape=partialRectangle;collapsible=0;dropTarget=0;pointerEvents=0;fillColor=none;top=0;left=0;bottom=0;right=0;points=[[0,0.5],[1,0.5]];portConstraint=eastwest;" parent="3KtKmSdysrP-4wJzGKe_-20" vertex="1"><mxGeometry y="120" width="180" height="30" as="geometry"/></mxCell><mxCell id="3KtKmSdysrP-4wJzGKe_-31" value="" style="shape=partialRectangle;connectable=0;fillColor=none;top=0;left=0;bottom=0;right=0;editable=1;overflow=hidden;" parent="3KtKmSdysrP-4wJzGKe_-30" vertex="1"><mxGeometry width="30" height="30" as="geometry"/></mxCell><mxCell id="3KtKmSdysrP-4wJzGKe_-32" value="" style="shape=partialRectangle;connectable=0;fillColor=none;top=0;left=0;bottom=0;right=0;align=left;spacingLeft=6;overflow=hidden;" parent="3KtKmSdysrP-4wJzGKe_-30" vertex="1"><mxGeometry x="30" width="150" height="30" as="geometry"/></mxCell><mxCell id="3KtKmSdysrP-4wJzGKe_-33" value="Coordinates" style="swimlane;childLayout=stackLayout;horizontal=1;startSize=30;horizontalStack=0;rounded=1;fontSize=14;fontStyle=0;strokeWidth=2;resizeParent=0;resizeLast=1;shadow=0;dashed=0;align=center;fillColor=#dae8fc;strokeColor=#6c8ebf;" parent="1" vertex="1"><mxGeometry x="800" y="1120" width="160" height="120" as="geometry"/></mxCell><mxCell id="3KtKmSdysrP-4wJzGKe_-34" value="+longitude&#10;+latitude" style="align=left;strokeColor=none;fillColor=none;spacingLeft=4;fontSize=12;verticalAlign=top;resizable=0;rotatable=0;part=1;" parent="3KtKmSdysrP-4wJzGKe_-33" vertex="1"><mxGeometry y="30" width="160" height="90" as="geometry"/></mxCell><mxCell id="3KtKmSdysrP-4wJzGKe_-35" value="AstronautsResponce" style="swimlane;childLayout=stackLayout;horizontal=1;startSize=30;horizontalStack=0;rounded=1;fontSize=14;fontStyle=0;strokeWidth=2;resizeParent=0;resizeLast=1;shadow=0;dashed=0;align=center;fillColor=#d5e8d4;strokeColor=#82b366;" parent="1" vertex="1"><mxGeometry x="520" y="1360" width="160" height="120" as="geometry"/></mxCell><mxCell id="3KtKmSdysrP-4wJzGKe_-36" value="+message&#10;+numberOfPeople&#10;+Person" style="align=left;strokeColor=none;fillColor=none;spacingLeft=4;fontSize=12;verticalAlign=top;resizable=0;rotatable=0;part=1;" parent="3KtKmSdysrP-4wJzGKe_-35" vertex="1"><mxGeometry y="30" width="160" height="90" as="geometry"/></mxCell><mxCell id="3KtKmSdysrP-4wJzGKe_-37" value="Person" style="swimlane;childLayout=stackLayout;horizontal=1;startSize=30;horizontalStack=0;rounded=1;fontSize=14;fontStyle=0;strokeWidth=2;resizeParent=0;resizeLast=1;shadow=0;dashed=0;align=center;fillColor=#f8cecc;strokeColor=#b85450;" parent="1" vertex="1"><mxGeometry x="800" y="1360" width="160" height="120" as="geometry"/></mxCell><mxCell id="3KtKmSdysrP-4wJzGKe_-38" value="+personName&#10;+spacecraftName" style="align=left;strokeColor=none;fillColor=none;spacingLeft=4;fontSize=12;verticalAlign=top;resizable=0;rotatable=0;part=1;" parent="3KtKmSdysrP-4wJzGKe_-37" vertex="1"><mxGeometry y="30" width="160" height="90" as="geometry"/></mxCell><mxCell id="3KtKmSdysrP-4wJzGKe_-42" style="edgeStyle=orthogonalEdgeStyle;rounded=1;orthogonalLoop=1;jettySize=auto;html=1;exitX=0.4;exitY=0.1;exitDx=0;exitDy=0;exitPerimeter=0;entryX=0.5;entryY=0;entryDx=0;entryDy=0;fontColor=#FF6666;curved=1;" parent="1" source="3KtKmSdysrP-4wJzGKe_-40" target="3KtKmSdysrP-4wJzGKe_-37" edge="1"><mxGeometry relative="1" as="geometry"><Array as="points"><mxPoint x="1068" y="1360"/><mxPoint x="990" y="1360"/><mxPoint x="990" y="1280"/><mxPoint x="880" y="1280"/></Array></mxGeometry></mxCell><mxCell id="3KtKmSdysrP-4wJzGKe_-40" value="Opcjonalnie" style="ellipse;shape=cloud;whiteSpace=wrap;html=1;fontColor=#FF6666;" parent="1" vertex="1"><mxGeometry x="1020" y="1380" width="120" height="80" as="geometry"/></mxCell><mxCell id="rnoemSZNfUtj81nscA1_-1" value="GUI:MainWindow" style="shape=umlLifeline;perimeter=lifelinePerimeter;whiteSpace=wrap;html=1;container=1;collapsible=0;recursiveResize=0;outlineConnect=0;fillColor=#d5e8d4;strokeColor=#82b366;" parent="1" vertex="1"><mxGeometry x="1300" y="120" width="100" height="880" as="geometry"/></mxCell><mxCell id="rnoemSZNfUtj81nscA1_-3" value="" style="html=1;points=[];perimeter=orthogonalPerimeter;strokeColor=#82b366;" parent="rnoemSZNfUtj81nscA1_-1" vertex="1"><mxGeometry x="42.5" y="80" width="15" height="760" as="geometry"/></mxCell><mxCell id="rnoemSZNfUtj81nscA1_-24" value="displayLocation()" style="edgeStyle=orthogonalEdgeStyle;html=1;align=left;spacingLeft=2;endArrow=block;rounded=0;" parent="rnoemSZNfUtj81nscA1_-1" source="rnoemSZNfUtj81nscA1_-3" target="rnoemSZNfUtj81nscA1_-3" edge="1"><mxGeometry relative="1" as="geometry"><mxPoint x="75" y="320" as="sourcePoint"/><Array as="points"><mxPoint x="75" y="320"/><mxPoint x="75" y="340"/></Array><mxPoint x="70" y="350" as="targetPoint"/></mxGeometry></mxCell><mxCell id="rnoemSZNfUtj81nscA1_-2" value="&lt;u&gt;PositionManager&lt;/u&gt;" style="shape=umlLifeline;perimeter=lifelinePerimeter;whiteSpace=wrap;html=1;container=1;collapsible=0;recursiveResize=0;outlineConnect=0;fillColor=#dae8fc;strokeColor=#6c8ebf;" parent="1" vertex="1"><mxGeometry x="1660" y="120" width="100" height="880" as="geometry"/></mxCell><mxCell id="rnoemSZNfUtj81nscA1_-5" value="" style="html=1;points=[];perimeter=orthogonalPerimeter;strokeColor=#36393d;" parent="rnoemSZNfUtj81nscA1_-2" vertex="1"><mxGeometry x="42.5" y="80" width="15" height="760" as="geometry"/></mxCell><mxCell id="rnoemSZNfUtj81nscA1_-4" value="getCurrentPosition()" style="html=1;verticalAlign=bottom;endArrow=block;" parent="1" source="rnoemSZNfUtj81nscA1_-3" target="rnoemSZNfUtj81nscA1_-5" edge="1"><mxGeometry width="80" relative="1" as="geometry"><mxPoint x="1610" y="240" as="sourcePoint"/><mxPoint x="1680" y="270" as="targetPoint"/><Array as="points"><mxPoint x="1690" y="260"/></Array></mxGeometry></mxCell><mxCell id="rnoemSZNfUtj81nscA1_-8" value="&lt;u&gt;IssApiCall&lt;/u&gt;" style="shape=umlLifeline;perimeter=lifelinePerimeter;whiteSpace=wrap;html=1;container=1;collapsible=0;recursiveResize=0;outlineConnect=0;" parent="1" vertex="1"><mxGeometry x="360" y="660" width="100" height="150" as="geometry"/></mxCell><mxCell id="rnoemSZNfUtj81nscA1_-9" value="" style="html=1;points=[];perimeter=orthogonalPerimeter;" parent="rnoemSZNfUtj81nscA1_-8" vertex="1"><mxGeometry x="45" y="80" width="10" height="40" as="geometry"/></mxCell><mxCell id="rnoemSZNfUtj81nscA1_-11" value="runRequest(CURRENT_LOCATION)" style="html=1;verticalAlign=bottom;endArrow=block;entryX=0.029;entryY=-0.004;entryDx=0;entryDy=0;entryPerimeter=0;" parent="1" target="rnoemSZNfUtj81nscA1_-9" edge="1"><mxGeometry width="80" relative="1" as="geometry"><mxPoint x="180" y="740" as="sourcePoint"/><mxPoint x="376" y="740" as="targetPoint"/><Array as="points"><mxPoint x="311" y="740"/></Array></mxGeometry></mxCell><mxCell id="rnoemSZNfUtj81nscA1_-12" value="return String" style="html=1;verticalAlign=bottom;endArrow=open;dashed=1;endSize=8;exitX=-0.057;exitY=0.996;exitDx=0;exitDy=0;exitPerimeter=0;" parent="1" source="rnoemSZNfUtj81nscA1_-9" edge="1"><mxGeometry relative="1" as="geometry"><mxPoint x="370" y="780" as="sourcePoint"/><mxPoint x="180" y="779.84" as="targetPoint"/></mxGeometry></mxCell><mxCell id="rnoemSZNfUtj81nscA1_-13" value="&lt;u&gt;DatabaseManager&lt;/u&gt;" style="shape=umlLifeline;perimeter=lifelinePerimeter;whiteSpace=wrap;html=1;container=1;collapsible=0;recursiveResize=0;outlineConnect=0;fillColor=#e1d5e7;strokeColor=#9673a6;" parent="1" vertex="1"><mxGeometry x="1880" y="120" width="100" height="840" as="geometry"/></mxCell><mxCell id="rnoemSZNfUtj81nscA1_-14" value="" style="html=1;points=[];perimeter=orthogonalPerimeter;strokeColor=#9673a6;" parent="rnoemSZNfUtj81nscA1_-13" vertex="1"><mxGeometry x="42.5" y="80" width="15" height="720" as="geometry"/></mxCell><mxCell id="rnoemSZNfUtj81nscA1_-16" value="getData(CURRENT_LOCATION)" style="html=1;verticalAlign=bottom;endArrow=block;" parent="1" source="rnoemSZNfUtj81nscA1_-5" target="rnoemSZNfUtj81nscA1_-14" edge="1"><mxGeometry width="80" relative="1" as="geometry"><mxPoint x="1740" y="280" as="sourcePoint"/><mxPoint x="1900" y="280" as="targetPoint"/><Array as="points"><mxPoint x="1760" y="280"/></Array></mxGeometry></mxCell><mxCell id="rnoemSZNfUtj81nscA1_-17" value="PositionDaoImpl" style="shape=umlLifeline;perimeter=lifelinePerimeter;whiteSpace=wrap;html=1;container=1;collapsible=0;recursiveResize=0;outlineConnect=0;fillColor=#fff2cc;strokeColor=#d6b656;" parent="1" vertex="1"><mxGeometry x="2110" y="120" width="100" height="760" as="geometry"/></mxCell><mxCell id="rnoemSZNfUtj81nscA1_-18" value="" style="html=1;points=[];perimeter=orthogonalPerimeter;strokeColor=#d6b656;" parent="rnoemSZNfUtj81nscA1_-17" vertex="1"><mxGeometry x="45" y="180" width="10" height="40" as="geometry"/></mxCell><mxCell id="rnoemSZNfUtj81nscA1_-32" value="" style="html=1;points=[];perimeter=orthogonalPerimeter;strokeColor=#d6b656;fillColor=#FFFFFF;" parent="rnoemSZNfUtj81nscA1_-17" vertex="1"><mxGeometry x="45" y="510" width="10" height="40" as="geometry"/></mxCell><mxCell id="rnoemSZNfUtj81nscA1_-19" value="getLatestPositionFromDatabase()" style="html=1;verticalAlign=bottom;endArrow=block;entryX=-0.029;entryY=0.014;entryDx=0;entryDy=0;entryPerimeter=0;" parent="1" source="rnoemSZNfUtj81nscA1_-14" target="rnoemSZNfUtj81nscA1_-18" edge="1"><mxGeometry width="80" relative="1" as="geometry"><mxPoint x="1950" y="321" as="sourcePoint"/><mxPoint x="2140" y="300" as="targetPoint"/></mxGeometry></mxCell><mxCell id="rnoemSZNfUtj81nscA1_-20" value="return(longitude, latitude)" style="html=1;verticalAlign=bottom;endArrow=open;dashed=1;endSize=8;exitX=-0.029;exitY=1;exitDx=0;exitDy=0;exitPerimeter=0;" parent="1" source="rnoemSZNfUtj81nscA1_-18" target="rnoemSZNfUtj81nscA1_-14" edge="1"><mxGeometry relative="1" as="geometry"><mxPoint x="2100" y="360" as="sourcePoint"/><mxPoint x="1960" y="360" as="targetPoint"/></mxGeometry></mxCell><mxCell id="rnoemSZNfUtj81nscA1_-21" value="return Position" style="html=1;verticalAlign=bottom;endArrow=open;dashed=1;endSize=8;" parent="1" source="rnoemSZNfUtj81nscA1_-14" target="rnoemSZNfUtj81nscA1_-5" edge="1"><mxGeometry relative="1" as="geometry"><mxPoint x="1900" y="325" as="sourcePoint"/><mxPoint x="1740" y="325" as="targetPoint"/><Array as="points"><mxPoint x="1800" y="370"/></Array></mxGeometry></mxCell><mxCell id="rnoemSZNfUtj81nscA1_-22" value="return Position" style="html=1;verticalAlign=bottom;endArrow=open;dashed=1;endSize=8;" parent="1" source="rnoemSZNfUtj81nscA1_-5" target="rnoemSZNfUtj81nscA1_-3" edge="1"><mxGeometry relative="1" as="geometry"><mxPoint x="1685" y="390" as="sourcePoint"/><mxPoint x="1540" y="390" as="targetPoint"/><Array as="points"><mxPoint x="1610" y="390"/></Array></mxGeometry></mxCell><mxCell id="rnoemSZNfUtj81nscA1_-25" value="&lt;u&gt;SpeedManager&lt;/u&gt;" style="shape=umlLifeline;perimeter=lifelinePerimeter;whiteSpace=wrap;html=1;container=1;collapsible=0;recursiveResize=0;outlineConnect=0;" parent="1" vertex="1"><mxGeometry x="1460" y="530" width="100" height="410" as="geometry"/></mxCell><mxCell id="rnoemSZNfUtj81nscA1_-26" value="" style="html=1;points=[];perimeter=orthogonalPerimeter;" parent="rnoemSZNfUtj81nscA1_-25" vertex="1"><mxGeometry x="42.5" y="70" width="15" height="200" as="geometry"/></mxCell><mxCell id="rnoemSZNfUtj81nscA1_-37" value="calculateCurrentSpeed()" style="edgeStyle=orthogonalEdgeStyle;html=1;align=left;spacingLeft=2;endArrow=block;rounded=0;" parent="rnoemSZNfUtj81nscA1_-25" source="rnoemSZNfUtj81nscA1_-26" target="rnoemSZNfUtj81nscA1_-26" edge="1"><mxGeometry relative="1" as="geometry"><mxPoint x="57.5" y="220.0044827586205" as="sourcePoint"/><Array as="points"><mxPoint x="80" y="220"/><mxPoint x="80" y="240"/></Array><mxPoint x="57.5" y="240.0044827586205" as="targetPoint"/></mxGeometry></mxCell><mxCell id="rnoemSZNfUtj81nscA1_-29" value="getCurrentLocation()" style="html=1;verticalAlign=bottom;endArrow=block;" parent="1" source="rnoemSZNfUtj81nscA1_-26" edge="1"><mxGeometry width="80" relative="1" as="geometry"><mxPoint x="1570" y="724.97" as="sourcePoint"/><mxPoint x="1702.5" y="599.97" as="targetPoint"/><Array as="points"><mxPoint x="1650" y="599.97"/></Array></mxGeometry></mxCell><mxCell id="rnoemSZNfUtj81nscA1_-30" value="getData(CURRENT_LOCATION)" style="html=1;verticalAlign=bottom;endArrow=block;" parent="1" edge="1"><mxGeometry width="80" relative="1" as="geometry"><mxPoint x="1717.5" y="619.97" as="sourcePoint"/><mxPoint x="1922.5" y="619.97" as="targetPoint"/><Array as="points"><mxPoint x="1772.5" y="619.97"/></Array></mxGeometry></mxCell><mxCell id="rnoemSZNfUtj81nscA1_-31" value="return(longitude, latitude)" style="html=1;verticalAlign=bottom;endArrow=open;dashed=1;endSize=8;" parent="1" edge="1"><mxGeometry relative="1" as="geometry"><mxPoint x="1922.5" y="689.97" as="sourcePoint"/><mxPoint x="1717.5" y="689.97" as="targetPoint"/><Array as="points"><mxPoint x="1850" y="689.97"/></Array></mxGeometry></mxCell><mxCell id="rnoemSZNfUtj81nscA1_-33" value="getLatestPositionFromDatabase()" style="html=1;verticalAlign=bottom;endArrow=block;entryX=-0.029;entryY=0.014;entryDx=0;entryDy=0;entryPerimeter=0;" parent="1" target="rnoemSZNfUtj81nscA1_-32" edge="1"><mxGeometry width="80" relative="1" as="geometry"><mxPoint x="1937.5" y="630.5300000000004" as="sourcePoint"/><mxPoint x="2140" y="609.97" as="targetPoint"/></mxGeometry></mxCell><mxCell id="rnoemSZNfUtj81nscA1_-34" value="return(longitude, latitude)" style="html=1;verticalAlign=bottom;endArrow=open;dashed=1;endSize=8;exitX=-0.029;exitY=1;exitDx=0;exitDy=0;exitPerimeter=0;" parent="1" source="rnoemSZNfUtj81nscA1_-32" edge="1"><mxGeometry relative="1" as="geometry"><mxPoint x="2100" y="669.97" as="sourcePoint"/><mxPoint x="1937.5" y="669.97" as="targetPoint"/></mxGeometry></mxCell><mxCell id="rnoemSZNfUtj81nscA1_-35" value="return(longitude, latitude)" style="html=1;verticalAlign=bottom;endArrow=open;dashed=1;endSize=8;" parent="1" target="rnoemSZNfUtj81nscA1_-26" edge="1"><mxGeometry relative="1" as="geometry"><mxPoint x="1702.5" y="709.97" as="sourcePoint"/><mxPoint x="1570" y="709.97" as="targetPoint"/><Array as="points"><mxPoint x="1660" y="709.97"/></Array></mxGeometry></mxCell><mxCell id="rnoemSZNfUtj81nscA1_-36" value="displayCurrentSpeed()" style="html=1;verticalAlign=bottom;endArrow=block;" parent="1" source="rnoemSZNfUtj81nscA1_-26" edge="1"><mxGeometry width="80" relative="1" as="geometry"><mxPoint x="1490" y="699.97" as="sourcePoint"/><mxPoint x="1355" y="799.97" as="targetPoint"/><Array as="points"><mxPoint x="1430" y="799.97"/></Array></mxGeometry></mxCell><mxCell id="fO9nQ9TDPX31HJ8RTjg1-1" value="użytkownik wcisnął przycisk&lt;br&gt;&quot;Pokaż lokację stacji&quot;" style="ellipse;shape=cloud;whiteSpace=wrap;html=1;align=center;spacingTop=0;spacing=2;fillColor=#dae8fc;strokeColor=#6c8ebf;" parent="1" vertex="1"><mxGeometry x="880" y="115" width="210" height="165" as="geometry"/></mxCell><mxCell id="fO9nQ9TDPX31HJ8RTjg1-2" value="" style="curved=1;endArrow=none;html=1;entryX=0.875;entryY=0.5;entryDx=0;entryDy=0;entryPerimeter=0;startArrow=classic;startFill=1;endFill=0;fillColor=#dae8fc;strokeColor=#6c8ebf;exitX=-0.001;exitY=0.1;exitDx=0;exitDy=0;exitPerimeter=0;" parent="1" source="fO9nQ9TDPX31HJ8RTjg1-5" target="fO9nQ9TDPX31HJ8RTjg1-1" edge="1"><mxGeometry width="50" height="50" relative="1" as="geometry"><mxPoint x="1140" y="270" as="sourcePoint"/><mxPoint x="1680" y="430" as="targetPoint"/><Array as="points"><mxPoint x="1120" y="260"/><mxPoint x="1180" y="160"/></Array></mxGeometry></mxCell><mxCell id="fO9nQ9TDPX31HJ8RTjg1-4" style="edgeStyle=orthogonalEdgeStyle;rounded=0;orthogonalLoop=1;jettySize=auto;html=1;exitX=0.625;exitY=0.2;exitDx=0;exitDy=0;exitPerimeter=0;entryX=-0.002;entryY=0.07;entryDx=0;entryDy=0;entryPerimeter=0;startArrow=none;startFill=0;endArrow=classic;endFill=1;curved=1;fillColor=#dae8fc;strokeColor=#6c8ebf;" parent="1" source="fO9nQ9TDPX31HJ8RTjg1-3" target="rnoemSZNfUtj81nscA1_-38" edge="1"><mxGeometry relative="1" as="geometry"><Array as="points"><mxPoint x="1133" y="590"/><mxPoint x="1190" y="590"/><mxPoint x="1190" y="526"/></Array></mxGeometry></mxCell><mxCell id="fO9nQ9TDPX31HJ8RTjg1-3" value="pętla wykonywana w osobnym wątku co ustaloną liczbę sekund" style="ellipse;shape=cloud;whiteSpace=wrap;html=1;fillColor=#dae8fc;spacingRight=15;spacingLeft=18;strokeColor=#6c8ebf;" parent="1" vertex="1"><mxGeometry x="1020" y="590" width="180" height="140" as="geometry"/></mxCell><mxCell id="rnoemSZNfUtj81nscA1_-38" value="loop&lt;br&gt;[5 sec?]" style="shape=umlFrame;whiteSpace=wrap;html=1;strokeColor=#23445d;width=70;height=50;fillColor=#bac8d3;" parent="1" vertex="1"><mxGeometry x="1240" y="500" width="1050" height="340" as="geometry"/></mxCell></root></mxGraphModel></diagram></mxfile>